G04 (created by PCBNEW-RS274X (2011-05-25)-stable) date Sun 16 Mar 2014 03:21:54 PM CDT*
G01*
G70*
G90*
%MOIN*%
G04 Gerber Fmt 3.4, Leading zero omitted, Abs format*
%FSLAX34Y34*%
G04 APERTURE LIST*
%ADD10C,0.006000*%
%ADD11C,0.051400*%
%ADD12R,0.045200X0.020200*%
%ADD13R,0.045200X0.025200*%
%ADD14R,0.025200X0.045200*%
%ADD15R,0.055200X0.035200*%
%ADD16C,0.055200*%
%ADD17R,0.035200X0.055200*%
%ADD18R,0.027800X0.039600*%
G04 APERTURE END LIST*
G54D10*
G54D11*
X20950Y-17350D03*
X20950Y-18137D03*
X20950Y-16563D03*
X15200Y-17350D03*
X15200Y-18137D03*
X15200Y-16563D03*
X12200Y-17350D03*
X12200Y-18137D03*
X12200Y-16563D03*
X15200Y-13850D03*
X15200Y-14637D03*
X15200Y-13063D03*
X12200Y-13850D03*
X12200Y-14637D03*
X12200Y-13063D03*
X15200Y-10350D03*
X15200Y-11137D03*
X15200Y-09563D03*
X12200Y-10350D03*
X12200Y-11137D03*
X12200Y-09563D03*
G54D12*
X20550Y-12100D03*
X20550Y-11600D03*
X20550Y-11100D03*
X20550Y-10600D03*
X20550Y-10100D03*
X20550Y-09600D03*
X20550Y-09100D03*
X18450Y-09100D03*
X18450Y-09600D03*
X18450Y-10100D03*
X18450Y-10600D03*
X18450Y-11100D03*
X18450Y-11600D03*
X18450Y-12100D03*
G54D13*
X13700Y-10650D03*
X13700Y-10050D03*
G54D14*
X19750Y-12850D03*
X19150Y-12850D03*
G54D15*
X17700Y-18975D03*
X17700Y-18225D03*
G54D13*
X16700Y-10650D03*
X16700Y-10050D03*
X13700Y-16900D03*
X13700Y-16300D03*
X16700Y-16900D03*
X16700Y-16300D03*
X13700Y-18400D03*
X13700Y-17800D03*
X16700Y-18400D03*
X16700Y-17800D03*
G54D16*
X21950Y-09100D03*
X21950Y-10100D03*
G54D17*
X19675Y-14900D03*
X18925Y-14900D03*
G54D13*
X18200Y-14400D03*
X18200Y-13800D03*
X20450Y-12800D03*
X20450Y-13400D03*
G54D18*
X18964Y-14126D03*
X18964Y-13574D03*
X19436Y-13574D03*
X19436Y-14126D03*
M02*
