M48
;DRILL file {PCBnew (2011-05-25)-stable} date Sun 16 Mar 2014 03:46:13 PM CDT
;FORMAT={-:-/ absolute / metric / decimal}
FMAT,2
METRIC,TZ
T1C0.813
%
G90
G05
M71
T1
X30.988Y-24.290
X30.988Y-26.289
X30.988Y-28.288
X30.988Y-33.180
X30.988Y-35.179
X30.988Y-37.178
X30.988Y-42.070
X30.988Y-44.069
X30.988Y-46.068
X38.608Y-24.290
X38.608Y-26.289
X38.608Y-28.288
X38.608Y-33.180
X38.608Y-35.179
X38.608Y-37.178
X38.608Y-42.070
X38.608Y-44.069
X38.608Y-46.068
X53.213Y-42.070
X53.213Y-44.069
X53.213Y-46.068
X55.753Y-23.114
X55.753Y-25.654
T0
M30
